<?xml version="1.0" standalone="no"?><!DOCTYPE svg PUBLIC "-//W3C//DTD SVG 1.1//EN" "http://www.w3.org/Graphics/SVG/1.1/DTD/svg11.dtd"><svg t="1521531225750" class="icon" style="" viewBox="0 0 1024 1024" version="1.1" xmlns="http://www.w3.org/2000/svg" p-id="12371" xmlns:xlink="http://www.w3.org/1999/xlink" width="32" height="32"><defs><style type="text/css"></style></defs><path d="M512 796.444444a398.222222 398.222222 0 1 1 398.222222-398.222222 398.222222 398.222222 0 0 1-398.222222 398.222222zM512 227.555556a227.555556 227.555556 0 1 0 227.555556 227.555555 227.555556 227.555556 0 0 0-227.555556-227.555555z m0 341.333333a113.777778 113.777778 0 1 1 113.777778-113.777778 113.777778 113.777778 0 0 1-113.777778 113.777778z m0 227.555555a397.880889 397.880889 0 0 1 359.367111 227.555556H152.632889A397.880889 397.880889 0 0 1 512 796.444444z" fill="#1296db" p-id="12372"></path></svg>