<?xml version="1.0" standalone="no"?><!DOCTYPE svg PUBLIC "-//W3C//DTD SVG 1.1//EN" "http://www.w3.org/Graphics/SVG/1.1/DTD/svg11.dtd"><svg t="1541988783898" class="icon" style="" viewBox="0 0 1025 1024" version="1.1" xmlns="http://www.w3.org/2000/svg" p-id="1193" xmlns:xlink="http://www.w3.org/1999/xlink" width="32.03125" height="32"><defs><style type="text/css"></style></defs><path d="M448.381072 863.901182c-229.418858 0-416.078862-186.660004-416.078862-416.077839 0-229.418858 186.658981-416.078862 416.078862-416.078862 229.418858 0 416.077839 186.661028 416.077839 416.078862C864.458911 677.241178 677.79993 863.901182 448.381072 863.901182zM448.381072 159.767251c-158.843161 0-288.056093 129.214979-288.056093 288.056093s129.212932 288.053023 288.056093 288.053023c158.841114 0 288.053023-129.210885 288.053023-288.053023S607.222186 159.767251 448.381072 159.767251z" p-id="1194" fill="#1296db"></path><path d="M992.483727 927.915125c0 35.379439-28.694882 64.00985-64.01292 64.00985-35.322131 0-64.011897-28.630411-64.011897-64.00985 0-35.381486 28.690789-64.013943 64.011897-64.013943C963.789868 863.901182 992.483727 892.53364 992.483727 927.915125z" p-id="1195" fill="#1296db"></path><path d="M777.966988 686.879854l192.033546 192.033546-90.516217 90.516217-192.033546-192.033546 90.516217-90.516217Z" p-id="1196" fill="#1296db"></path></svg>