<?xml version="1.0" standalone="no"?><!DOCTYPE svg PUBLIC "-//W3C//DTD SVG 1.1//EN" "http://www.w3.org/Graphics/SVG/1.1/DTD/svg11.dtd"><svg t="1502414958036" class="icon" style="" viewBox="0 0 1024 1024" version="1.1" xmlns="http://www.w3.org/2000/svg" p-id="587" xmlns:xlink="http://www.w3.org/1999/xlink" width="60" height="60"><defs><style type="text/css"></style></defs><path d="M948.084 675.38l-249.519-155.264v89.061l-426.982-0.035c-41.57-0.082-75.198-33.72-75.236-75.271 0.035-41.542 33.668-75.175 75.236-75.227 41.578 0.045 75.182 33.685 75.253 75.227v40.357h120.395v-40.357c0-108.057-87.548-195.623-195.647-195.656-108.082 0.035-195.623 87.601-195.665 195.656 0.035 108.057 87.583 195.639 195.665 195.701h426.982v101.089l249.519-155.281zM349.338 957.442h120.404v-189.857h-120.404v189.857zM513.242 957.434h120.429v-189.83h-120.429v189.83zM513.242 573.613h120.429v-257.555h90.3l-155.264-249.502-155.271 249.502h99.806v257.555z" p-id="588" fill="#ffffff"></path></svg>