<?xml version="1.0" standalone="no"?><!DOCTYPE svg PUBLIC "-//W3C//DTD SVG 1.1//EN" "http://www.w3.org/Graphics/SVG/1.1/DTD/svg11.dtd"><svg t="1502414900384" class="icon" style="" viewBox="0 0 1024 1024" version="1.1" xmlns="http://www.w3.org/2000/svg" p-id="577" xmlns:xlink="http://www.w3.org/1999/xlink" width="60" height="60"><defs><style type="text/css"></style></defs><path d="M589.824 26.88c-33.536-35.84-88.064-35.84-121.856 0L65.024 761.856c-33.536 35.84-25.856 144.896 23.296 144.896h361.216l406.272-396.544L589.824 26.88z m-98.048 263.936c0-28.416 21.76-51.456 48.384-51.456 26.624 0 48.384 23.04 48.384 51.456v240.128c0 28.416-21.76 51.456-48.384 51.456-26.624 0-48.384-23.04-48.384-51.456v-240.128z m48.64 463.104c-26.624 0-48.384-23.04-48.384-51.456 0-28.416 21.76-51.456 48.384-51.456s48.384 23.04 48.384 51.456-21.76 51.456-48.384 51.456z m432.128-99.328c-3.072-3.84-9.472-4.096-12.8-0.512-16.128 15.872-32.256 32-48.384 48.128-17.664-5.632-35.584-11.264-53.504-16.896-0.256-1.536-0.512-2.816-1.024-4.096a3345.92 3345.92 0 0 0-15.104-47.104c0-0.512-0.256-1.28-0.512-1.792 14.848-14.336 29.184-29.184 43.776-43.776 2.304-2.304 5.12-4.608 6.144-7.68 1.792-4.608-1.536-9.984-6.4-11.264-7.936-1.28-15.872-0.768-23.808 0.256-20.48 2.816-39.936 12.288-55.04 26.624-12.288 11.52-21.248 26.368-26.368 42.24-5.888 18.944-5.888 39.68 0 58.624-18.688 20.224-37.632 40.448-56.32 60.416-25.344 23.808-50.944 47.872-76.288 71.68-6.656-2.048-13.312-3.072-20.224-3.84-5.888 0-12.032-0.512-17.92 0.256-7.68 0.768-15.104 2.56-22.272 4.864-25.6 8.704-47.104 28.672-58.112 53.248-5.888 13.312-8.704 27.904-8.704 42.496 0.512 3.84-0.256 8.192 2.56 11.264 3.072 3.84 9.472 4.096 12.8 0.512 16.128-15.872 32.256-32 48.384-48.128 17.664 5.632 35.584 11.264 53.504 16.896 0.256 1.536 0.512 2.816 1.024 4.096a3345.92 3345.92 0 0 0 15.104 47.104c0 0.512 0.256 1.28 0.512 1.792-14.848 14.336-29.184 29.184-43.776 43.776-2.304 2.304-5.12 4.608-6.144 7.68-1.792 4.608 1.536 9.984 6.4 11.264 7.936 1.28 15.872 0.768 23.808-0.256 20.48-2.816 39.936-12.288 55.04-26.624 12.288-11.52 21.248-26.368 26.368-42.24 5.888-18.944 5.888-39.68 0-58.624 18.688-20.224 37.632-40.448 56.32-60.416 25.344-23.808 50.944-47.872 76.288-71.68 6.656 2.048 13.312 3.072 20.224 3.84 5.888 0 12.032 0.512 17.92-0.256 7.68-0.768 15.104-2.56 22.272-4.864 25.6-8.704 47.104-28.672 58.112-53.248 5.888-13.312 8.704-27.904 8.704-42.496-0.512-3.584 0.256-8.192-2.56-11.264z" p-id="578" fill="#ffffff"></path></svg>