<?xml version="1.0" standalone="no"?><!DOCTYPE svg PUBLIC "-//W3C//DTD SVG 1.1//EN" "http://www.w3.org/Graphics/SVG/1.1/DTD/svg11.dtd"><svg t="1502415135844" class="icon" style="" viewBox="0 0 1024 1024" version="1.1" xmlns="http://www.w3.org/2000/svg" p-id="2144" xmlns:xlink="http://www.w3.org/1999/xlink" width="60" height="60"><defs><style type="text/css"></style></defs><path d="M98.304 572.928h128.512v214.016H98.304v-214.016zM269.824 315.392h128.512v471.552H269.824V315.392zM511.488 673.28c0-57.856 22.016-110.08 58.368-150.016V444.416H441.344v343.04h101.888c-19.968-33.792-31.744-72.704-31.744-114.176zM735.232 451.584c3.072 0 5.632 0.512 8.704 0.512V186.88h-128.512v300.032c34.304-22.016 75.776-35.328 119.808-35.328z" fill="#ffffff" p-id="2145"></path><path d="M737.792 486.912c-100.352 0-181.248 81.408-181.248 181.248s81.408 181.248 181.248 181.248 181.248-81.408 181.248-181.248-81.408-181.248-181.248-181.248z m-111.104 292.352l24.064-64.512 38.4 37.888-62.464 26.624z m72.704-32.256l-41.472-43.008 115.2-113.664 39.936 40.96-113.664 115.712z m146.944-147.456c-5.632 6.144-23.04 23.552-23.04 23.552l-41.472-41.472 20.48-20.48s9.216-8.704 21.504 0c12.288 8.704 22.528 20.48 22.528 20.48s5.12 12.288 0 17.92z" fill="#ffffff" p-id="2146"></path></svg>