<?xml version="1.0" standalone="no"?><!DOCTYPE svg PUBLIC "-//W3C//DTD SVG 1.1//EN" "http://www.w3.org/Graphics/SVG/1.1/DTD/svg11.dtd"><svg t="1502416231230" class="icon" style="" viewBox="0 0 1024 1024" version="1.1" xmlns="http://www.w3.org/2000/svg" p-id="630" xmlns:xlink="http://www.w3.org/1999/xlink" width="60" height="60"><defs><style type="text/css"></style></defs><path d="M390.688073 925.499615c0.038886 53.683666 42.944068 97.229438 96.263437 98.442056 0.759293 0.017396 1.512447 0.058328 2.27481 0.058328 54.428633 0 98.601692-44.053332 98.601692-98.500385l-100.876502 0L390.688073 925.499615zM999.525586 584.664973 865.788675 400.074861c41.839921-35.626405 68.481697-88.514963 68.481697-147.786904 0-107.436918-87.094614-194.531532-194.531532-194.531532-40.220027 0-77.584006 12.213159-108.599394 33.122375-25.976628-12.151761-53.716412-21.160949-82.810031-26.319435L548.329417 39.404452c0-21.74935-17.654079-39.404452-39.404452-39.404452l-21.973454 0L469.527676 0c-21.750373 0-39.402405 17.654079-39.402405 39.404452l0 25.273616C273.588075 92.807732 154.719804 229.391481 154.719804 394.005632l0 316.600705L16.422018 822.541709l0 63.868633 470.529493 0 475.079112 0 0-63.868633L824.523853 710.606337 824.523853 427.164846c2.550079-1.239224 5.013177-2.62478 7.499811-3.970428l134.76431 186.008414c3.561106 6.184863 10.221806 10.358929 17.871019 10.358929 11.390421 0 20.624736-9.234315 20.624736-20.624736C1005.28373 593.393775 1003.084645 588.370365 999.525586 584.664973zM824.396963 388.386658c-8.662287 5.40101-17.890462 9.965979-27.538193 13.678534-1.399883 0.534166-2.806929 1.050935-4.225231 1.547239-2.505054 0.884137-5.018294 1.7519-7.578606 2.51324-3.836375 1.128707-7.715729 2.155083-11.664667 2.99931-1.571798 0.339738-3.179412 0.573051-4.767584 0.865717-3.272533 0.595564-6.568602 1.11745-9.907651 1.512447-1.50426 0.180102-3.009544 0.354064-4.527107 0.491187-4.767584 0.426719-9.56996 0.729617-14.44806 0.729617-22.151509 0-43.25413-4.489244-62.449307-12.608156-4.799306-2.030239-9.478885-4.285606-14.024411-6.755868-27.279297-14.818497-49.779753-37.318954-64.59825-64.59825-2.470261-4.546549-4.725628-9.225105-6.755868-14.024411-8.118911-19.194154-12.608156-40.297798-12.608156-62.449307 0-4.935406 0.302899-9.797134 0.738827-14.617929 0.12075-1.335415 0.272199-2.661619 0.425695-3.986801 0.452301-3.911076 1.041726-7.777127 1.77032-11.596106 0.180102-0.947582 0.313132-1.911536 0.51063-2.852978 0.942465-4.496407 2.099824-8.91095 3.409656-13.260002 0.410346-1.357927 0.87902-2.689249 1.323135-4.031826 1.038656-3.14155 2.175549-6.237051 3.399423-9.289574 0.585331-1.455141 1.146103-2.921539 1.772366-4.354168 1.690502-3.880377 3.511987-7.690146 5.493108-11.403724 0.804319-1.50426 1.700735-2.950192 2.552126-4.423753 1.362021-2.366907 2.77009-4.702092 4.247744-6.991228 1.14815-1.775436 2.314719-3.53757 3.530406-5.263887 1.399883-1.9934 2.883677-3.920286 4.370541-5.844102 2.301416-2.971681 4.702092-5.857405 7.203052-8.65717 1.299599-1.459235 2.589988-2.925632 3.941775-4.336772 1.820462-1.895163 3.698229-3.734044 5.608741-5.538133 1.136893-1.075495 2.305509-2.115174 3.474125-3.1569 6.858198-6.110161 14.229073-11.650341 22.064528-16.527418 1.043772-0.649799 2.093684-1.289366 3.152806-1.915629 2.602268-1.538029 5.226025-3.048429 7.92039-4.441149 22.042016-11.398608 46.99943-17.944697 73.525574-17.944697 88.606037 0 160.435992 71.829955 160.435992 160.435992C900.174833 309.777299 869.836875 360.058472 824.396963 388.386658zM739.738841 123.595946c-13.490246 0-24.426319 10.936073-24.426319 24.426319 0 2.075265 0.260943 4.090155 0.748037 6.013971l15.719007 126.357849c0 4.396123 3.563152 7.959276 7.960299 7.959276 4.396123 0 7.959276-3.563152 7.959276-7.959276l15.719007-126.357849c0.487094-1.923816 0.748037-3.938706 0.748037-6.013971C764.16516 134.532019 753.229087 123.595946 739.738841 123.595946zM739.738841 328.674695m-24.156166 0a23.606 23.606 0 1 0 48.312332 0 23.606 23.606 0 1 0-48.312332 0Z" p-id="631" fill="#ffffff"></path></svg>